<?xml version="1.0" encoding="utf-8"?>
<!-- Generator: Adobe Illustrator 21.0.2, SVG Export Plug-In . SVG Version: 6.00 Build 0)  -->
<svg version="1.1" id="Capa_1" xmlns="http://www.w3.org/2000/svg" xmlns:xlink="http://www.w3.org/1999/xlink" x="0px" y="0px"
	 viewBox="0 0 512 512" style="enable-background:new 0 0 512 512;" xml:space="preserve">
<style type="text/css">
	.st0{fill:#600C0D;}
	.st1{fill:#2864F0;}
	.st2{fill:#E6F1FF;}
	.st3{fill:#BFE1FF;}
	.st4{fill:#A21A18;}
	.st5{fill:#3389FF;}
</style>
<path class="st0" d="M465.3,152.9l-93.6,93.3l-52.8-53.1L265.7,140l93.3-93.3c6-5.7,15.6-5.7,21.3,0L423,89.3l42.3,42.3
	C471,137.3,471,146.9,465.3,152.9z"/>
<path class="st1" d="M465.3,152.9l-93.6,93.3l-52.8-53.1L423,89.3l42.3,42.3C471,137.3,471,146.9,465.3,152.9z"/>
<path class="st2" d="M243.2,326.4L24.6,508.5c-6,5.1-14.7,4.5-20.1-0.9c-5.7-5.4-6-14.1-0.9-20.1l181.7-219
	c5.4-6.3,14.7-7.2,21.3-1.8l38.4,38.4C250.4,311.7,249.5,321,243.2,326.4z"/>
<path class="st3" d="M243.2,326.4L24.6,508.5c-6,5.1-14.7,4.5-20.1-0.9l221.6-221.4l18.9,18.9C250.4,311.7,249.5,321,243.2,326.4z"
	/>
<g>
	<path class="st4" d="M353.4,201.3L332,180L310.1,158c-53.4-53.7-139.2-50.4-190.2,0.6L98.6,180c-5.7,5.7-5.7,15.3,0,21.3
		l212.1,212.1c6,5.7,15.6,5.7,21.3,0l21.3-21.3C406.2,339.3,406.2,254.1,353.4,201.3z"/>
	<path class="st4" d="M490.2,71.6l-49.8-49.8c-29.1-29.1-76.8-29.1-105.9,0c-6,6-6,15.3,0,21.3l134.4,134.4c6,6,15.3,6,21.3,0
		C519.3,148.4,519.3,100.7,490.2,71.6z"/>
</g>
<g>
	<path class="st5" d="M353.4,201.3c52.8,52.8,52.8,138,0,190.8L332,413.4c-5.7,5.7-15.3,5.7-21.3,0L204.8,307.5L332,180L353.4,201.3
		z"/>
	<path class="st5" d="M490.2,177.6c-6,6-15.3,6-21.3,0l-67.2-67.2l63.6-63.6l24.9,24.9C519.3,100.7,519.3,148.4,490.2,177.6z"/>
</g>
</svg>
